<mxfile host="app.diagrams.net" agent="Mozilla/5.0 (Macintosh; Intel Mac OS X 10_15_7) AppleWebKit/605.1.15 (KHTML, like Gecko) Version/17.4.1 Safari/605.1.15" version="24.8.4">
  <diagram name="Страница — 1" id="w9CK_Gi24d_7JAU_JWUt">
    <mxGraphModel grid="1" page="1" gridSize="10" guides="1" tooltips="1" connect="1" arrows="1" fold="1" pageScale="1" pageWidth="827" pageHeight="1169" math="0" shadow="0">
      <root>
        <mxCell id="0" />
        <mxCell id="1" parent="0" />
        <mxCell id="7-4F1J_uM00n48sQhlS0-16" value="order_id: int" style="swimlane;fontStyle=0;childLayout=stackLayout;horizontal=1;startSize=26;horizontalStack=0;resizeParent=1;resizeParentMax=0;resizeLast=0;collapsible=1;marginBottom=0;align=center;fontSize=14;" vertex="1" parent="1">
          <mxGeometry x="270" y="140" width="160" height="266" as="geometry" />
        </mxCell>
        <mxCell id="z25OLKXf6obtOIz2l0nd-13" value="&lt;span style=&quot;font-size: 14px; text-align: center; white-space: nowrap;&quot;&gt;customer_id: int(FK)&lt;/span&gt;" style="text;strokeColor=none;fillColor=none;spacingLeft=4;spacingRight=4;overflow=hidden;rotatable=0;points=[[0,0.5],[1,0.5]];portConstraint=eastwest;fontSize=12;whiteSpace=wrap;html=1;" vertex="1" parent="7-4F1J_uM00n48sQhlS0-16">
          <mxGeometry y="26" width="160" height="30" as="geometry" />
        </mxCell>
        <mxCell id="7-4F1J_uM00n48sQhlS0-19" value="worker_id: int(FK)" style="text;strokeColor=none;fillColor=none;spacingLeft=4;spacingRight=4;overflow=hidden;rotatable=0;points=[[0,0.5],[1,0.5]];portConstraint=eastwest;fontSize=12;whiteSpace=wrap;html=1;" vertex="1" parent="7-4F1J_uM00n48sQhlS0-16">
          <mxGeometry y="56" width="160" height="30" as="geometry" />
        </mxCell>
        <mxCell id="7-4F1J_uM00n48sQhlS0-21" value="product_id: int(FK)" style="text;strokeColor=none;fillColor=none;spacingLeft=4;spacingRight=4;overflow=hidden;rotatable=0;points=[[0,0.5],[1,0.5]];portConstraint=eastwest;fontSize=12;whiteSpace=wrap;html=1;" vertex="1" parent="7-4F1J_uM00n48sQhlS0-16">
          <mxGeometry y="86" width="160" height="30" as="geometry" />
        </mxCell>
        <mxCell id="7-4F1J_uM00n48sQhlS0-20" value="order_date: date" style="text;strokeColor=none;fillColor=none;spacingLeft=4;spacingRight=4;overflow=hidden;rotatable=0;points=[[0,0.5],[1,0.5]];portConstraint=eastwest;fontSize=12;whiteSpace=wrap;html=1;" vertex="1" parent="7-4F1J_uM00n48sQhlS0-16">
          <mxGeometry y="116" width="160" height="30" as="geometry" />
        </mxCell>
        <mxCell id="7-4F1J_uM00n48sQhlS0-22" value="date of receipt: date" style="text;strokeColor=none;fillColor=none;spacingLeft=4;spacingRight=4;overflow=hidden;rotatable=0;points=[[0,0.5],[1,0.5]];portConstraint=eastwest;fontSize=12;whiteSpace=wrap;html=1;" vertex="1" parent="7-4F1J_uM00n48sQhlS0-16">
          <mxGeometry y="146" width="160" height="30" as="geometry" />
        </mxCell>
        <mxCell id="7-4F1J_uM00n48sQhlS0-23" value="selling_price: int&lt;div&gt;&lt;br&gt;&lt;/div&gt;" style="text;strokeColor=none;fillColor=none;spacingLeft=4;spacingRight=4;overflow=hidden;rotatable=0;points=[[0,0.5],[1,0.5]];portConstraint=eastwest;fontSize=12;whiteSpace=wrap;html=1;" vertex="1" parent="7-4F1J_uM00n48sQhlS0-16">
          <mxGeometry y="176" width="160" height="30" as="geometry" />
        </mxCell>
        <mxCell id="7-4F1J_uM00n48sQhlS0-31" value="product_count: int" style="text;strokeColor=none;fillColor=none;spacingLeft=4;spacingRight=4;overflow=hidden;rotatable=0;points=[[0,0.5],[1,0.5]];portConstraint=eastwest;fontSize=12;whiteSpace=wrap;html=1;" vertex="1" parent="7-4F1J_uM00n48sQhlS0-16">
          <mxGeometry y="206" width="160" height="30" as="geometry" />
        </mxCell>
        <mxCell id="7-4F1J_uM00n48sQhlS0-24" value="status: varchar(20)" style="text;strokeColor=none;fillColor=none;spacingLeft=4;spacingRight=4;overflow=hidden;rotatable=0;points=[[0,0.5],[1,0.5]];portConstraint=eastwest;fontSize=12;whiteSpace=wrap;html=1;" vertex="1" parent="7-4F1J_uM00n48sQhlS0-16">
          <mxGeometry y="236" width="160" height="30" as="geometry" />
        </mxCell>
        <mxCell id="7-4F1J_uM00n48sQhlS0-25" value="" style="endArrow=none;dashed=1;html=1;dashPattern=1 3;strokeWidth=2;rounded=0;exitX=1.003;exitY=-0.067;exitDx=0;exitDy=0;entryX=-0.002;entryY=0.091;entryDx=0;entryDy=0;entryPerimeter=0;exitPerimeter=0;" edge="1" parent="1" source="7-4F1J_uM00n48sQhlS0-23" target="7-4F1J_uM00n48sQhlS0-28">
          <mxGeometry width="50" height="50" relative="1" as="geometry">
            <mxPoint x="600" y="310" as="sourcePoint" />
            <mxPoint x="520" y="270" as="targetPoint" />
          </mxGeometry>
        </mxCell>
        <mxCell id="7-4F1J_uM00n48sQhlS0-26" value="worker_id: int" style="swimlane;fontStyle=0;childLayout=stackLayout;horizontal=1;startSize=26;horizontalStack=0;resizeParent=1;resizeParentMax=0;resizeLast=0;collapsible=1;marginBottom=0;align=center;fontSize=14;" vertex="1" parent="1">
          <mxGeometry x="530" y="254" width="160" height="130" as="geometry" />
        </mxCell>
        <mxCell id="7-4F1J_uM00n48sQhlS0-27" value="post_id: int (FK)" style="text;strokeColor=none;fillColor=none;spacingLeft=4;spacingRight=4;overflow=hidden;rotatable=0;points=[[0,0.5],[1,0.5]];portConstraint=eastwest;fontSize=12;whiteSpace=wrap;html=1;" vertex="1" parent="7-4F1J_uM00n48sQhlS0-26">
          <mxGeometry y="26" width="160" height="30" as="geometry" />
        </mxCell>
        <mxCell id="7-4F1J_uM00n48sQhlS0-28" value="employee&#39;s service&amp;nbsp;&lt;div&gt;number: int&lt;/div&gt;" style="text;strokeColor=none;fillColor=none;spacingLeft=4;spacingRight=4;overflow=hidden;rotatable=0;points=[[0,0.5],[1,0.5]];portConstraint=eastwest;fontSize=12;whiteSpace=wrap;html=1;" vertex="1" parent="7-4F1J_uM00n48sQhlS0-26">
          <mxGeometry y="56" width="160" height="44" as="geometry" />
        </mxCell>
        <mxCell id="7-4F1J_uM00n48sQhlS0-37" value="status: varchar(20)" style="text;strokeColor=none;fillColor=none;spacingLeft=4;spacingRight=4;overflow=hidden;rotatable=0;points=[[0,0.5],[1,0.5]];portConstraint=eastwest;fontSize=12;whiteSpace=wrap;html=1;" vertex="1" parent="7-4F1J_uM00n48sQhlS0-26">
          <mxGeometry y="100" width="160" height="30" as="geometry" />
        </mxCell>
        <mxCell id="N6S2Juw2z-ouQ5b6DnsQ-2" value="product_price_id: int" style="swimlane;fontStyle=0;childLayout=stackLayout;horizontal=1;startSize=30;horizontalStack=0;resizeParent=1;resizeParentMax=0;resizeLast=0;collapsible=1;marginBottom=0;whiteSpace=wrap;html=1;" vertex="1" parent="1">
          <mxGeometry x="-640" y="10" width="250" height="140" as="geometry" />
        </mxCell>
        <mxCell id="N6S2Juw2z-ouQ5b6DnsQ-4" value="product_id: int(FK)" style="text;strokeColor=none;fillColor=none;align=left;verticalAlign=middle;spacingLeft=4;spacingRight=4;overflow=hidden;points=[[0,0.5],[1,0.5]];portConstraint=eastwest;rotatable=0;whiteSpace=wrap;html=1;" vertex="1" parent="N6S2Juw2z-ouQ5b6DnsQ-2">
          <mxGeometry y="30" width="250" height="30" as="geometry" />
        </mxCell>
        <mxCell id="N6S2Juw2z-ouQ5b6DnsQ-8" value="beginning_of_the_validity_period: data" style="text;strokeColor=none;fillColor=none;align=left;verticalAlign=middle;spacingLeft=4;spacingRight=4;overflow=hidden;points=[[0,0.5],[1,0.5]];portConstraint=eastwest;rotatable=0;whiteSpace=wrap;html=1;" vertex="1" parent="N6S2Juw2z-ouQ5b6DnsQ-2">
          <mxGeometry y="60" width="250" height="40" as="geometry" />
        </mxCell>
        <mxCell id="N6S2Juw2z-ouQ5b6DnsQ-10" value="end_of_the_validity_period: data" style="text;strokeColor=none;fillColor=none;align=left;verticalAlign=middle;spacingLeft=4;spacingRight=4;overflow=hidden;points=[[0,0.5],[1,0.5]];portConstraint=eastwest;rotatable=0;whiteSpace=wrap;html=1;" vertex="1" parent="N6S2Juw2z-ouQ5b6DnsQ-2">
          <mxGeometry y="100" width="250" height="40" as="geometry" />
        </mxCell>
        <mxCell id="7-4F1J_uM00n48sQhlS0-38" value="" style="endArrow=none;dashed=1;html=1;dashPattern=1 3;strokeWidth=2;rounded=0;exitX=0.987;exitY=0.205;exitDx=0;exitDy=0;exitPerimeter=0;entryX=0;entryY=0.5;entryDx=0;entryDy=0;" edge="1" parent="1" source="tcYbnixqoclAkC9XCUin-47" target="7-4F1J_uM00n48sQhlS0-42">
          <mxGeometry width="50" height="50" relative="1" as="geometry">
            <mxPoint x="820" y="360" as="sourcePoint" />
            <mxPoint x="840" y="272" as="targetPoint" />
          </mxGeometry>
        </mxCell>
        <mxCell id="7-4F1J_uM00n48sQhlS0-39" value="Current_position_id: int" style="swimlane;fontStyle=0;childLayout=stackLayout;horizontal=1;startSize=26;horizontalStack=0;resizeParent=1;resizeParentMax=0;resizeLast=0;collapsible=1;marginBottom=0;align=center;fontSize=14;" vertex="1" parent="1">
          <mxGeometry x="840" y="210" width="160" height="218" as="geometry" />
        </mxCell>
        <mxCell id="7-4F1J_uM00n48sQhlS0-40" value="post_id: int (FK)" style="text;strokeColor=none;fillColor=none;spacingLeft=4;spacingRight=4;overflow=hidden;rotatable=0;points=[[0,0.5],[1,0.5]];portConstraint=eastwest;fontSize=12;whiteSpace=wrap;html=1;" vertex="1" parent="7-4F1J_uM00n48sQhlS0-39">
          <mxGeometry y="26" width="160" height="30" as="geometry" />
        </mxCell>
        <mxCell id="7-4F1J_uM00n48sQhlS0-41" value="&lt;span style=&quot;font-size: 14px; text-align: center; white-space: nowrap;&quot;&gt;worker_id: int(FK)&lt;/span&gt;" style="text;strokeColor=none;fillColor=none;spacingLeft=4;spacingRight=4;overflow=hidden;rotatable=0;points=[[0,0.5],[1,0.5]];portConstraint=eastwest;fontSize=12;whiteSpace=wrap;html=1;" vertex="1" parent="7-4F1J_uM00n48sQhlS0-39">
          <mxGeometry y="56" width="160" height="30" as="geometry" />
        </mxCell>
        <mxCell id="7-4F1J_uM00n48sQhlS0-42" value="begging_of_the_period: date&amp;nbsp;&lt;div&gt;&lt;br&gt;&lt;/div&gt;" style="text;strokeColor=none;fillColor=none;spacingLeft=4;spacingRight=4;overflow=hidden;rotatable=0;points=[[0,0.5],[1,0.5]];portConstraint=eastwest;fontSize=12;whiteSpace=wrap;html=1;" vertex="1" parent="7-4F1J_uM00n48sQhlS0-39">
          <mxGeometry y="86" width="160" height="44" as="geometry" />
        </mxCell>
        <mxCell id="7-4F1J_uM00n48sQhlS0-43" value="ending_of_the_period: date&amp;nbsp;&lt;div&gt;&lt;br&gt;&lt;/div&gt;" style="text;strokeColor=none;fillColor=none;spacingLeft=4;spacingRight=4;overflow=hidden;rotatable=0;points=[[0,0.5],[1,0.5]];portConstraint=eastwest;fontSize=12;whiteSpace=wrap;html=1;" vertex="1" parent="7-4F1J_uM00n48sQhlS0-39">
          <mxGeometry y="130" width="160" height="44" as="geometry" />
        </mxCell>
        <mxCell id="7-4F1J_uM00n48sQhlS0-75" value="status: archer(20)" style="text;strokeColor=none;fillColor=none;spacingLeft=4;spacingRight=4;overflow=hidden;rotatable=0;points=[[0,0.5],[1,0.5]];portConstraint=eastwest;fontSize=12;whiteSpace=wrap;html=1;" vertex="1" parent="7-4F1J_uM00n48sQhlS0-39">
          <mxGeometry y="174" width="160" height="44" as="geometry" />
        </mxCell>
        <mxCell id="N6S2Juw2z-ouQ5b6DnsQ-11" value="product_id: int" style="swimlane;fontStyle=0;childLayout=stackLayout;horizontal=1;startSize=30;horizontalStack=0;resizeParent=1;resizeParentMax=0;resizeLast=0;collapsible=1;marginBottom=0;whiteSpace=wrap;html=1;" vertex="1" parent="1">
          <mxGeometry x="-280" y="-170" width="200" height="290" as="geometry" />
        </mxCell>
        <mxCell id="N6S2Juw2z-ouQ5b6DnsQ-12" value="&lt;span style=&quot;text-align: center;&quot;&gt;product_price_id: int (FK)&lt;/span&gt;" style="text;strokeColor=none;fillColor=none;align=left;verticalAlign=middle;spacingLeft=4;spacingRight=4;overflow=hidden;points=[[0,0.5],[1,0.5]];portConstraint=eastwest;rotatable=0;whiteSpace=wrap;html=1;" vertex="1" parent="N6S2Juw2z-ouQ5b6DnsQ-11">
          <mxGeometry y="30" width="200" height="30" as="geometry" />
        </mxCell>
        <mxCell id="N6S2Juw2z-ouQ5b6DnsQ-13" value="manufacturer_id: int(FK)" style="text;strokeColor=none;fillColor=none;align=left;verticalAlign=middle;spacingLeft=4;spacingRight=4;overflow=hidden;points=[[0,0.5],[1,0.5]];portConstraint=eastwest;rotatable=0;whiteSpace=wrap;html=1;" vertex="1" parent="N6S2Juw2z-ouQ5b6DnsQ-11">
          <mxGeometry y="60" width="200" height="30" as="geometry" />
        </mxCell>
        <mxCell id="N6S2Juw2z-ouQ5b6DnsQ-14" value="unit_of_measurement_id: int(FK)&amp;nbsp;" style="text;strokeColor=none;fillColor=none;align=left;verticalAlign=middle;spacingLeft=4;spacingRight=4;overflow=hidden;points=[[0,0.5],[1,0.5]];portConstraint=eastwest;rotatable=0;whiteSpace=wrap;html=1;" vertex="1" parent="N6S2Juw2z-ouQ5b6DnsQ-11">
          <mxGeometry y="90" width="200" height="50" as="geometry" />
        </mxCell>
        <mxCell id="N6S2Juw2z-ouQ5b6DnsQ-15" value="product_description: varchar(200)" style="text;strokeColor=none;fillColor=none;align=left;verticalAlign=middle;spacingLeft=4;spacingRight=4;overflow=hidden;points=[[0,0.5],[1,0.5]];portConstraint=eastwest;rotatable=0;whiteSpace=wrap;html=1;" vertex="1" parent="N6S2Juw2z-ouQ5b6DnsQ-11">
          <mxGeometry y="140" width="200" height="50" as="geometry" />
        </mxCell>
        <mxCell id="N6S2Juw2z-ouQ5b6DnsQ-16" value="product_name: varchar(50)" style="text;strokeColor=none;fillColor=none;align=left;verticalAlign=middle;spacingLeft=4;spacingRight=4;overflow=hidden;points=[[0,0.5],[1,0.5]];portConstraint=eastwest;rotatable=0;whiteSpace=wrap;html=1;" vertex="1" parent="N6S2Juw2z-ouQ5b6DnsQ-11">
          <mxGeometry y="190" width="200" height="50" as="geometry" />
        </mxCell>
        <mxCell id="N6S2Juw2z-ouQ5b6DnsQ-39" value="status: varchar(20)" style="text;strokeColor=none;fillColor=none;align=left;verticalAlign=middle;spacingLeft=4;spacingRight=4;overflow=hidden;points=[[0,0.5],[1,0.5]];portConstraint=eastwest;rotatable=0;whiteSpace=wrap;html=1;" vertex="1" parent="N6S2Juw2z-ouQ5b6DnsQ-11">
          <mxGeometry y="240" width="200" height="50" as="geometry" />
        </mxCell>
        <mxCell id="7-4F1J_uM00n48sQhlS0-44" value="" style="endArrow=none;dashed=1;html=1;dashPattern=1 3;strokeWidth=2;rounded=0;exitX=0.996;exitY=1.061;exitDx=0;exitDy=0;exitPerimeter=0;entryX=-0.004;entryY=0.053;entryDx=0;entryDy=0;entryPerimeter=0;" edge="1" parent="1" source="tcYbnixqoclAkC9XCUin-52" target="7-4F1J_uM00n48sQhlS0-47">
          <mxGeometry width="50" height="50" relative="1" as="geometry">
            <mxPoint x="1000" y="251" as="sourcePoint" />
            <mxPoint x="1100" y="265" as="targetPoint" />
          </mxGeometry>
        </mxCell>
        <mxCell id="7-4F1J_uM00n48sQhlS0-45" value="post&#39;s_list" style="swimlane;fontStyle=0;childLayout=stackLayout;horizontal=1;startSize=26;horizontalStack=0;resizeParent=1;resizeParentMax=0;resizeLast=0;collapsible=1;marginBottom=0;align=center;fontSize=14;" vertex="1" parent="1">
          <mxGeometry x="1110" y="209.9999999999999" width="160" height="86" as="geometry" />
        </mxCell>
        <mxCell id="7-4F1J_uM00n48sQhlS0-46" value="post_id: int" style="text;strokeColor=none;fillColor=none;spacingLeft=4;spacingRight=4;overflow=hidden;rotatable=0;points=[[0,0.5],[1,0.5]];portConstraint=eastwest;fontSize=12;whiteSpace=wrap;html=1;" vertex="1" parent="7-4F1J_uM00n48sQhlS0-45">
          <mxGeometry y="26" width="160" height="30" as="geometry" />
        </mxCell>
        <mxCell id="7-4F1J_uM00n48sQhlS0-47" value="title: varchar(20)" style="text;strokeColor=none;fillColor=none;spacingLeft=4;spacingRight=4;overflow=hidden;rotatable=0;points=[[0,0.5],[1,0.5]];portConstraint=eastwest;fontSize=12;whiteSpace=wrap;html=1;" vertex="1" parent="7-4F1J_uM00n48sQhlS0-45">
          <mxGeometry y="56" width="160" height="30" as="geometry" />
        </mxCell>
        <mxCell id="7-4F1J_uM00n48sQhlS0-49" value="shipment_id: int" style="swimlane;fontStyle=0;childLayout=stackLayout;horizontal=1;startSize=26;horizontalStack=0;resizeParent=1;resizeParentMax=0;resizeLast=0;collapsible=1;marginBottom=0;align=center;fontSize=14;" vertex="1" parent="1">
          <mxGeometry x="530" y="-30" width="160" height="224" as="geometry" />
        </mxCell>
        <mxCell id="7-4F1J_uM00n48sQhlS0-50" value="provider_id: int(FK)" style="text;strokeColor=none;fillColor=none;spacingLeft=4;spacingRight=4;overflow=hidden;rotatable=0;points=[[0,0.5],[1,0.5]];portConstraint=eastwest;fontSize=12;whiteSpace=wrap;html=1;" vertex="1" parent="7-4F1J_uM00n48sQhlS0-49">
          <mxGeometry y="26" width="160" height="30" as="geometry" />
        </mxCell>
        <mxCell id="z25OLKXf6obtOIz2l0nd-9" value="worker_id: int(FK)" style="text;strokeColor=none;fillColor=none;spacingLeft=4;spacingRight=4;overflow=hidden;rotatable=0;points=[[0,0.5],[1,0.5]];portConstraint=eastwest;fontSize=12;whiteSpace=wrap;html=1;" vertex="1" parent="7-4F1J_uM00n48sQhlS0-49">
          <mxGeometry y="56" width="160" height="30" as="geometry" />
        </mxCell>
        <mxCell id="7-4F1J_uM00n48sQhlS0-51" value="batch_number: int" style="text;strokeColor=none;fillColor=none;spacingLeft=4;spacingRight=4;overflow=hidden;rotatable=0;points=[[0,0.5],[1,0.5]];portConstraint=eastwest;fontSize=12;whiteSpace=wrap;html=1;" vertex="1" parent="7-4F1J_uM00n48sQhlS0-49">
          <mxGeometry y="86" width="160" height="30" as="geometry" />
        </mxCell>
        <mxCell id="7-4F1J_uM00n48sQhlS0-52" value="date of delivery to the base: date" style="text;strokeColor=none;fillColor=none;spacingLeft=4;spacingRight=4;overflow=hidden;rotatable=0;points=[[0,0.5],[1,0.5]];portConstraint=eastwest;fontSize=12;whiteSpace=wrap;html=1;" vertex="1" parent="7-4F1J_uM00n48sQhlS0-49">
          <mxGeometry y="116" width="160" height="54" as="geometry" />
        </mxCell>
        <mxCell id="7-4F1J_uM00n48sQhlS0-76" value="status: varchar(20)" style="text;strokeColor=none;fillColor=none;spacingLeft=4;spacingRight=4;overflow=hidden;rotatable=0;points=[[0,0.5],[1,0.5]];portConstraint=eastwest;fontSize=12;whiteSpace=wrap;html=1;" vertex="1" parent="7-4F1J_uM00n48sQhlS0-49">
          <mxGeometry y="170" width="160" height="54" as="geometry" />
        </mxCell>
        <mxCell id="7-4F1J_uM00n48sQhlS0-53" value="" style="endArrow=none;dashed=1;html=1;dashPattern=1 3;strokeWidth=2;rounded=0;exitX=0.5;exitY=0;exitDx=0;exitDy=0;entryX=0.49;entryY=0.968;entryDx=0;entryDy=0;entryPerimeter=0;" edge="1" parent="1" source="tcYbnixqoclAkC9XCUin-44" target="7-4F1J_uM00n48sQhlS0-76">
          <mxGeometry width="50" height="50" relative="1" as="geometry">
            <mxPoint x="650" y="140" as="sourcePoint" />
            <mxPoint x="610" y="170" as="targetPoint" />
          </mxGeometry>
        </mxCell>
        <mxCell id="N6S2Juw2z-ouQ5b6DnsQ-25" value="manufacturer_id: int" style="swimlane;fontStyle=0;childLayout=stackLayout;horizontal=1;startSize=30;horizontalStack=0;resizeParent=1;resizeParentMax=0;resizeLast=0;collapsible=1;marginBottom=0;whiteSpace=wrap;html=1;" vertex="1" parent="1">
          <mxGeometry x="-270" y="-450" width="190" height="180" as="geometry" />
        </mxCell>
        <mxCell id="N6S2Juw2z-ouQ5b6DnsQ-26" value="company_name: int" style="text;strokeColor=none;fillColor=none;align=left;verticalAlign=middle;spacingLeft=4;spacingRight=4;overflow=hidden;points=[[0,0.5],[1,0.5]];portConstraint=eastwest;rotatable=0;whiteSpace=wrap;html=1;" vertex="1" parent="N6S2Juw2z-ouQ5b6DnsQ-25">
          <mxGeometry y="30" width="190" height="30" as="geometry" />
        </mxCell>
        <mxCell id="N6S2Juw2z-ouQ5b6DnsQ-27" value="manufacturer&#39;s_address: varchar(200)" style="text;strokeColor=none;fillColor=none;align=left;verticalAlign=middle;spacingLeft=4;spacingRight=4;overflow=hidden;points=[[0,0.5],[1,0.5]];portConstraint=eastwest;rotatable=0;whiteSpace=wrap;html=1;" vertex="1" parent="N6S2Juw2z-ouQ5b6DnsQ-25">
          <mxGeometry y="60" width="190" height="60" as="geometry" />
        </mxCell>
        <mxCell id="N6S2Juw2z-ouQ5b6DnsQ-40" value="status: varchar(20)" style="text;strokeColor=none;fillColor=none;align=left;verticalAlign=middle;spacingLeft=4;spacingRight=4;overflow=hidden;points=[[0,0.5],[1,0.5]];portConstraint=eastwest;rotatable=0;whiteSpace=wrap;html=1;" vertex="1" parent="N6S2Juw2z-ouQ5b6DnsQ-25">
          <mxGeometry y="120" width="190" height="60" as="geometry" />
        </mxCell>
        <mxCell id="7-4F1J_uM00n48sQhlS0-67" value="purchase_prices" style="swimlane;fontStyle=0;childLayout=stackLayout;horizontal=1;startSize=26;horizontalStack=0;resizeParent=1;resizeParentMax=0;resizeLast=0;collapsible=1;marginBottom=0;align=center;fontSize=14;" vertex="1" parent="1">
          <mxGeometry x="530" y="-260" width="160" height="158" as="geometry" />
        </mxCell>
        <mxCell id="7-4F1J_uM00n48sQhlS0-68" value="product_id: int(FK)" style="text;strokeColor=none;fillColor=none;spacingLeft=4;spacingRight=4;overflow=hidden;rotatable=0;points=[[0,0.5],[1,0.5]];portConstraint=eastwest;fontSize=12;whiteSpace=wrap;html=1;" vertex="1" parent="7-4F1J_uM00n48sQhlS0-67">
          <mxGeometry y="26" width="160" height="30" as="geometry" />
        </mxCell>
        <mxCell id="7-4F1J_uM00n48sQhlS0-70" value="begging_of_the_period: date&amp;nbsp;&lt;br&gt;&lt;div&gt;&lt;br&gt;&lt;/div&gt;" style="text;strokeColor=none;fillColor=none;spacingLeft=4;spacingRight=4;overflow=hidden;rotatable=0;points=[[0,0.5],[1,0.5]];portConstraint=eastwest;fontSize=12;whiteSpace=wrap;html=1;" vertex="1" parent="7-4F1J_uM00n48sQhlS0-67">
          <mxGeometry y="56" width="160" height="34" as="geometry" />
        </mxCell>
        <mxCell id="7-4F1J_uM00n48sQhlS0-78" value="ending_of_the_period: date&amp;nbsp;&lt;br&gt;&lt;div&gt;&lt;br&gt;&lt;/div&gt;" style="text;strokeColor=none;fillColor=none;spacingLeft=4;spacingRight=4;overflow=hidden;rotatable=0;points=[[0,0.5],[1,0.5]];portConstraint=eastwest;fontSize=12;whiteSpace=wrap;html=1;" vertex="1" parent="7-4F1J_uM00n48sQhlS0-67">
          <mxGeometry y="90" width="160" height="34" as="geometry" />
        </mxCell>
        <mxCell id="7-4F1J_uM00n48sQhlS0-79" value="unit_price: int" style="text;strokeColor=none;fillColor=none;spacingLeft=4;spacingRight=4;overflow=hidden;rotatable=0;points=[[0,0.5],[1,0.5]];portConstraint=eastwest;fontSize=12;whiteSpace=wrap;html=1;" vertex="1" parent="7-4F1J_uM00n48sQhlS0-67">
          <mxGeometry y="124" width="160" height="34" as="geometry" />
        </mxCell>
        <mxCell id="N6S2Juw2z-ouQ5b6DnsQ-33" value="&lt;div style=&quot;text-align: left;&quot;&gt;shipment_composition&lt;/div&gt;" style="swimlane;fontStyle=0;childLayout=stackLayout;horizontal=1;startSize=30;horizontalStack=0;resizeParent=1;resizeParentMax=0;resizeLast=0;collapsible=1;marginBottom=0;whiteSpace=wrap;html=1;" vertex="1" parent="1">
          <mxGeometry x="150" y="-70" width="140" height="150" as="geometry" />
        </mxCell>
        <mxCell id="N6S2Juw2z-ouQ5b6DnsQ-35" value="product_id: int(FK)" style="text;strokeColor=none;fillColor=none;align=left;verticalAlign=middle;spacingLeft=4;spacingRight=4;overflow=hidden;points=[[0,0.5],[1,0.5]];portConstraint=eastwest;rotatable=0;whiteSpace=wrap;html=1;" vertex="1" parent="N6S2Juw2z-ouQ5b6DnsQ-33">
          <mxGeometry y="30" width="140" height="30" as="geometry" />
        </mxCell>
        <mxCell id="N6S2Juw2z-ouQ5b6DnsQ-37" value="shipment_id: int(FK)" style="text;strokeColor=none;fillColor=none;align=left;verticalAlign=middle;spacingLeft=4;spacingRight=4;overflow=hidden;points=[[0,0.5],[1,0.5]];portConstraint=eastwest;rotatable=0;whiteSpace=wrap;html=1;" vertex="1" parent="N6S2Juw2z-ouQ5b6DnsQ-33">
          <mxGeometry y="60" width="140" height="30" as="geometry" />
        </mxCell>
        <mxCell id="N6S2Juw2z-ouQ5b6DnsQ-42" value="product_count: int" style="text;strokeColor=none;fillColor=none;align=left;verticalAlign=middle;spacingLeft=4;spacingRight=4;overflow=hidden;points=[[0,0.5],[1,0.5]];portConstraint=eastwest;rotatable=0;whiteSpace=wrap;html=1;" vertex="1" parent="N6S2Juw2z-ouQ5b6DnsQ-33">
          <mxGeometry y="90" width="140" height="30" as="geometry" />
        </mxCell>
        <mxCell id="N6S2Juw2z-ouQ5b6DnsQ-44" value="&lt;span style=&quot;text-align: center;&quot;&gt;product_price: int&lt;/span&gt;" style="text;strokeColor=none;fillColor=none;align=left;verticalAlign=middle;spacingLeft=4;spacingRight=4;overflow=hidden;points=[[0,0.5],[1,0.5]];portConstraint=eastwest;rotatable=0;whiteSpace=wrap;html=1;" vertex="1" parent="N6S2Juw2z-ouQ5b6DnsQ-33">
          <mxGeometry y="120" width="140" height="30" as="geometry" />
        </mxCell>
        <mxCell id="7-4F1J_uM00n48sQhlS0-81" value="provider_id: int" style="swimlane;fontStyle=0;childLayout=stackLayout;horizontal=1;startSize=26;horizontalStack=0;resizeParent=1;resizeParentMax=0;resizeLast=0;collapsible=1;marginBottom=0;align=center;fontSize=14;" vertex="1" parent="1">
          <mxGeometry x="810" y="-248" width="160" height="110" as="geometry" />
        </mxCell>
        <mxCell id="7-4F1J_uM00n48sQhlS0-82" value="сompany_name: varchar(40)" style="text;strokeColor=none;fillColor=none;spacingLeft=4;spacingRight=4;overflow=hidden;rotatable=0;points=[[0,0.5],[1,0.5]];portConstraint=eastwest;fontSize=12;whiteSpace=wrap;html=1;" vertex="1" parent="7-4F1J_uM00n48sQhlS0-81">
          <mxGeometry y="26" width="160" height="44" as="geometry" />
        </mxCell>
        <mxCell id="7-4F1J_uM00n48sQhlS0-83" value="сompany_address: varchar(40)" style="text;strokeColor=none;fillColor=none;spacingLeft=4;spacingRight=4;overflow=hidden;rotatable=0;points=[[0,0.5],[1,0.5]];portConstraint=eastwest;fontSize=12;whiteSpace=wrap;html=1;" vertex="1" parent="7-4F1J_uM00n48sQhlS0-81">
          <mxGeometry y="70" width="160" height="40" as="geometry" />
        </mxCell>
        <mxCell id="7-4F1J_uM00n48sQhlS0-85" value="" style="endArrow=none;dashed=1;html=1;dashPattern=1 3;strokeWidth=2;rounded=0;exitX=0;exitY=0.5;exitDx=0;exitDy=0;entryX=-0.005;entryY=0.007;entryDx=0;entryDy=0;entryPerimeter=0;" edge="1" parent="1" source="tcYbnixqoclAkC9XCUin-38" target="7-4F1J_uM00n48sQhlS0-83">
          <mxGeometry width="50" height="50" relative="1" as="geometry">
            <mxPoint x="630" y="-280" as="sourcePoint" />
            <mxPoint x="680" y="-330" as="targetPoint" />
          </mxGeometry>
        </mxCell>
        <mxCell id="7-4F1J_uM00n48sQhlS0-86" value="customer_id: int" style="swimlane;fontStyle=0;childLayout=stackLayout;horizontal=1;startSize=26;horizontalStack=0;resizeParent=1;resizeParentMax=0;resizeLast=0;collapsible=1;marginBottom=0;align=center;fontSize=14;" vertex="1" parent="1">
          <mxGeometry x="270" y="469" width="160" height="100" as="geometry" />
        </mxCell>
        <mxCell id="7-4F1J_uM00n48sQhlS0-87" value="customer_address: int" style="text;strokeColor=none;fillColor=none;spacingLeft=4;spacingRight=4;overflow=hidden;rotatable=0;points=[[0,0.5],[1,0.5]];portConstraint=eastwest;fontSize=12;whiteSpace=wrap;html=1;" vertex="1" parent="7-4F1J_uM00n48sQhlS0-86">
          <mxGeometry y="26" width="160" height="30" as="geometry" />
        </mxCell>
        <mxCell id="7-4F1J_uM00n48sQhlS0-88" value="customer_company_name: varchar(40)" style="text;strokeColor=none;fillColor=none;spacingLeft=4;spacingRight=4;overflow=hidden;rotatable=0;points=[[0,0.5],[1,0.5]];portConstraint=eastwest;fontSize=12;whiteSpace=wrap;html=1;" vertex="1" parent="7-4F1J_uM00n48sQhlS0-86">
          <mxGeometry y="56" width="160" height="44" as="geometry" />
        </mxCell>
        <mxCell id="7-4F1J_uM00n48sQhlS0-90" value="" style="endArrow=none;dashed=1;html=1;dashPattern=1 3;strokeWidth=2;rounded=0;exitX=0.463;exitY=0;exitDx=0;exitDy=0;exitPerimeter=0;entryX=0.45;entryY=1.033;entryDx=0;entryDy=0;entryPerimeter=0;" edge="1" parent="1" source="tcYbnixqoclAkC9XCUin-57" target="7-4F1J_uM00n48sQhlS0-24">
          <mxGeometry width="50" height="50" relative="1" as="geometry">
            <mxPoint x="600" y="440" as="sourcePoint" />
            <mxPoint x="650" y="390" as="targetPoint" />
          </mxGeometry>
        </mxCell>
        <mxCell id="N6S2Juw2z-ouQ5b6DnsQ-45" value="order_composition_id: int" style="swimlane;fontStyle=0;childLayout=stackLayout;horizontal=1;startSize=30;horizontalStack=0;resizeParent=1;resizeParentMax=0;resizeLast=0;collapsible=1;marginBottom=0;whiteSpace=wrap;html=1;" vertex="1" parent="1">
          <mxGeometry x="-280" y="200" width="210" height="150" as="geometry" />
        </mxCell>
        <mxCell id="N6S2Juw2z-ouQ5b6DnsQ-46" value="&lt;span style=&quot;text-align: center;&quot;&gt;product_id: int&lt;/span&gt;" style="text;strokeColor=none;fillColor=none;align=left;verticalAlign=middle;spacingLeft=4;spacingRight=4;overflow=hidden;points=[[0,0.5],[1,0.5]];portConstraint=eastwest;rotatable=0;whiteSpace=wrap;html=1;" vertex="1" parent="N6S2Juw2z-ouQ5b6DnsQ-45">
          <mxGeometry y="30" width="210" height="30" as="geometry" />
        </mxCell>
        <mxCell id="N6S2Juw2z-ouQ5b6DnsQ-47" value="&lt;span style=&quot;font-size: 14px; text-align: center; white-space: nowrap;&quot;&gt;order_id: int&lt;/span&gt;" style="text;strokeColor=none;fillColor=none;align=left;verticalAlign=middle;spacingLeft=4;spacingRight=4;overflow=hidden;points=[[0,0.5],[1,0.5]];portConstraint=eastwest;rotatable=0;whiteSpace=wrap;html=1;" vertex="1" parent="N6S2Juw2z-ouQ5b6DnsQ-45">
          <mxGeometry y="60" width="210" height="30" as="geometry" />
        </mxCell>
        <mxCell id="N6S2Juw2z-ouQ5b6DnsQ-48" value="&lt;span style=&quot;text-align: center;&quot;&gt;product_price: int&lt;/span&gt;" style="text;strokeColor=none;fillColor=none;align=left;verticalAlign=middle;spacingLeft=4;spacingRight=4;overflow=hidden;points=[[0,0.5],[1,0.5]];portConstraint=eastwest;rotatable=0;whiteSpace=wrap;html=1;" vertex="1" parent="N6S2Juw2z-ouQ5b6DnsQ-45">
          <mxGeometry y="90" width="210" height="30" as="geometry" />
        </mxCell>
        <mxCell id="N6S2Juw2z-ouQ5b6DnsQ-49" value="product_count: int" style="text;strokeColor=none;fillColor=none;align=left;verticalAlign=middle;spacingLeft=4;spacingRight=4;overflow=hidden;points=[[0,0.5],[1,0.5]];portConstraint=eastwest;rotatable=0;whiteSpace=wrap;html=1;" vertex="1" parent="N6S2Juw2z-ouQ5b6DnsQ-45">
          <mxGeometry y="120" width="210" height="30" as="geometry" />
        </mxCell>
        <mxCell id="N6S2Juw2z-ouQ5b6DnsQ-52" value="" style="shape=umlActor;verticalLabelPosition=bottom;verticalAlign=top;html=1;outlineConnect=0;fillColor=#fad9d5;strokeColor=#ae4132;" vertex="1" parent="1">
          <mxGeometry x="530" y="-780" width="10" height="20" as="geometry" />
        </mxCell>
        <mxCell id="tcYbnixqoclAkC9XCUin-2" value="" style="endArrow=none;dashed=1;html=1;dashPattern=1 3;strokeWidth=2;rounded=0;entryX=-0.013;entryY=0.989;entryDx=0;entryDy=0;entryPerimeter=0;exitX=1.003;exitY=0.787;exitDx=0;exitDy=0;exitPerimeter=0;" edge="1" parent="1" source="tcYbnixqoclAkC9XCUin-60" target="7-4F1J_uM00n48sQhlS0-20">
          <mxGeometry width="50" height="50" relative="1" as="geometry">
            <mxPoint x="-70" y="271" as="sourcePoint" />
            <mxPoint x="210" y="-100" as="targetPoint" />
          </mxGeometry>
        </mxCell>
        <mxCell id="N6S2Juw2z-ouQ5b6DnsQ-53" value="" style="ellipse;shape=cloud;whiteSpace=wrap;html=1;fillColor=#b1ddf0;strokeColor=#10739e;" vertex="1" parent="1">
          <mxGeometry x="490" y="-800" width="30" height="20" as="geometry" />
        </mxCell>
        <mxCell id="N6S2Juw2z-ouQ5b6DnsQ-54" value="" style="ellipse;shape=cloud;whiteSpace=wrap;html=1;fillColor=#b1ddf0;strokeColor=#10739e;" vertex="1" parent="1">
          <mxGeometry x="500" y="-810" width="30" height="20" as="geometry" />
        </mxCell>
        <mxCell id="N6S2Juw2z-ouQ5b6DnsQ-55" value="" style="ellipse;shape=cloud;whiteSpace=wrap;html=1;fillColor=#b1ddf0;strokeColor=#10739e;" vertex="1" parent="1">
          <mxGeometry x="520" y="-805" width="30" height="20" as="geometry" />
        </mxCell>
        <mxCell id="N6S2Juw2z-ouQ5b6DnsQ-56" value="" style="ellipse;shape=cloud;whiteSpace=wrap;html=1;fillColor=#b1ddf0;strokeColor=#10739e;" vertex="1" parent="1">
          <mxGeometry x="470" y="-800" width="30" height="20" as="geometry" />
        </mxCell>
        <mxCell id="N6S2Juw2z-ouQ5b6DnsQ-58" value="" style="ellipse;shape=cloud;whiteSpace=wrap;html=1;fillColor=#b1ddf0;strokeColor=#10739e;" vertex="1" parent="1">
          <mxGeometry x="510" y="-800" width="30" height="20" as="geometry" />
        </mxCell>
        <mxCell id="N6S2Juw2z-ouQ5b6DnsQ-60" value="" style="ellipse;whiteSpace=wrap;html=1;aspect=fixed;fillColor=#756E06;fillStyle=auto;strokeColor=none;" vertex="1" parent="1">
          <mxGeometry x="500" y="-795" width="10" height="10" as="geometry" />
        </mxCell>
        <mxCell id="N6S2Juw2z-ouQ5b6DnsQ-61" value="" style="ellipse;shape=cloud;whiteSpace=wrap;html=1;fillColor=#b1ddf0;strokeColor=#10739e;" vertex="1" parent="1">
          <mxGeometry x="480" y="-810" width="30" height="20" as="geometry" />
        </mxCell>
        <mxCell id="N6S2Juw2z-ouQ5b6DnsQ-62" value="" style="endArrow=none;dashed=1;html=1;dashPattern=1 3;strokeWidth=2;rounded=0;exitX=0.628;exitY=0.801;exitDx=0;exitDy=0;fillColor=#ffe6cc;strokeColor=#756E06;exitPerimeter=0;" edge="1" parent="1" source="N6S2Juw2z-ouQ5b6DnsQ-60">
          <mxGeometry width="50" height="50" relative="1" as="geometry">
            <mxPoint x="490" y="-740" as="sourcePoint" />
            <mxPoint x="510" y="-770" as="targetPoint" />
          </mxGeometry>
        </mxCell>
        <mxCell id="tcYbnixqoclAkC9XCUin-4" value="" style="endArrow=none;dashed=1;html=1;dashPattern=1 3;strokeWidth=2;rounded=0;entryX=1.005;entryY=0.288;entryDx=0;entryDy=0;entryPerimeter=0;exitX=-0.002;exitY=0.247;exitDx=0;exitDy=0;exitPerimeter=0;" edge="1" parent="1" source="tcYbnixqoclAkC9XCUin-66" target="N6S2Juw2z-ouQ5b6DnsQ-8">
          <mxGeometry width="50" height="50" relative="1" as="geometry">
            <mxPoint x="-240" y="110" as="sourcePoint" />
            <mxPoint x="-190" y="60" as="targetPoint" />
          </mxGeometry>
        </mxCell>
        <mxCell id="N6S2Juw2z-ouQ5b6DnsQ-63" value="" style="endArrow=none;dashed=1;html=1;dashPattern=1 3;strokeWidth=2;rounded=0;entryX=0.487;entryY=0.882;entryDx=0;entryDy=0;entryPerimeter=0;strokeColor=#756E06;" edge="1" parent="1" target="N6S2Juw2z-ouQ5b6DnsQ-60">
          <mxGeometry width="50" height="50" relative="1" as="geometry">
            <mxPoint x="500" y="-770" as="sourcePoint" />
            <mxPoint x="540" y="-790" as="targetPoint" />
          </mxGeometry>
        </mxCell>
        <mxCell id="N6S2Juw2z-ouQ5b6DnsQ-66" value="" style="endArrow=none;dashed=1;html=1;dashPattern=1 3;strokeWidth=2;rounded=0;entryX=0;entryY=1;entryDx=0;entryDy=0;strokeColor=#756E06;" edge="1" parent="1" target="N6S2Juw2z-ouQ5b6DnsQ-60">
          <mxGeometry width="50" height="50" relative="1" as="geometry">
            <mxPoint x="490" y="-770" as="sourcePoint" />
            <mxPoint x="540" y="-790" as="targetPoint" />
          </mxGeometry>
        </mxCell>
        <mxCell id="N6S2Juw2z-ouQ5b6DnsQ-67" value="" style="endArrow=none;dashed=1;html=1;dashPattern=1 3;strokeWidth=2;rounded=0;entryX=1;entryY=1;entryDx=0;entryDy=0;strokeColor=#756E06;" edge="1" parent="1">
          <mxGeometry width="50" height="50" relative="1" as="geometry">
            <mxPoint x="520" y="-771.5768430846389" as="sourcePoint" />
            <mxPoint x="508.53553390594607" y="-790.0044660940541" as="targetPoint" />
          </mxGeometry>
        </mxCell>
        <mxCell id="tcYbnixqoclAkC9XCUin-10" value="&lt;span style=&quot;text-align: left;&quot;&gt;unit_of_measurement_id: int&lt;/span&gt;" style="swimlane;fontStyle=0;childLayout=stackLayout;horizontal=1;startSize=30;horizontalStack=0;resizeParent=1;resizeParentMax=0;resizeLast=0;collapsible=1;marginBottom=0;whiteSpace=wrap;html=1;" vertex="1" parent="1">
          <mxGeometry x="-640" y="-170" width="250" height="60" as="geometry" />
        </mxCell>
        <mxCell id="tcYbnixqoclAkC9XCUin-12" value="name" style="text;strokeColor=none;fillColor=none;align=left;verticalAlign=middle;spacingLeft=4;spacingRight=4;overflow=hidden;points=[[0,0.5],[1,0.5]];portConstraint=eastwest;rotatable=0;whiteSpace=wrap;html=1;" vertex="1" parent="tcYbnixqoclAkC9XCUin-10">
          <mxGeometry y="30" width="250" height="30" as="geometry" />
        </mxCell>
        <mxCell id="N6S2Juw2z-ouQ5b6DnsQ-69" value="" style="verticalLabelPosition=bottom;verticalAlign=top;html=1;shape=mxgraph.basic.flash;rotation=90;fillColor=#60a917;fontColor=#ffffff;strokeColor=#2D7600;" vertex="1" parent="1">
          <mxGeometry x="480" y="-780" width="10" height="50" as="geometry" />
        </mxCell>
        <mxCell id="N6S2Juw2z-ouQ5b6DnsQ-70" value="" style="verticalLabelPosition=bottom;verticalAlign=top;html=1;shape=mxgraph.basic.flash;rotation=-90;fillColor=#60a917;fontColor=#ffffff;strokeColor=#2D7600;" vertex="1" parent="1">
          <mxGeometry x="510" y="-780" width="10" height="50" as="geometry" />
        </mxCell>
        <mxCell id="tcYbnixqoclAkC9XCUin-14" value="" style="endArrow=none;dashed=1;html=1;dashPattern=1 3;strokeWidth=2;rounded=0;entryX=1.004;entryY=0.057;entryDx=0;entryDy=0;entryPerimeter=0;exitX=0.008;exitY=0.096;exitDx=0;exitDy=0;exitPerimeter=0;" edge="1" parent="1" source="tcYbnixqoclAkC9XCUin-68" target="tcYbnixqoclAkC9XCUin-12">
          <mxGeometry width="50" height="50" relative="1" as="geometry">
            <mxPoint x="-140" y="100" as="sourcePoint" />
            <mxPoint x="-90" y="50" as="targetPoint" />
          </mxGeometry>
        </mxCell>
        <mxCell id="N6S2Juw2z-ouQ5b6DnsQ-71" value="" style="verticalLabelPosition=bottom;verticalAlign=top;html=1;shape=mxgraph.basic.flash;rotation=-90;fillColor=#60a917;fontColor=#ffffff;strokeColor=#2D7600;" vertex="1" parent="1">
          <mxGeometry x="540" y="-780" width="10" height="50" as="geometry" />
        </mxCell>
        <mxCell id="tcYbnixqoclAkC9XCUin-17" value="" style="endArrow=none;dashed=1;html=1;dashPattern=1 3;strokeWidth=2;rounded=0;entryX=1.003;entryY=0.997;entryDx=0;entryDy=0;entryPerimeter=0;exitX=-0.002;exitY=0.967;exitDx=0;exitDy=0;exitPerimeter=0;" edge="1" parent="1" source="tcYbnixqoclAkC9XCUin-75" target="N6S2Juw2z-ouQ5b6DnsQ-15">
          <mxGeometry width="50" height="50" relative="1" as="geometry">
            <mxPoint x="150" y="20" as="sourcePoint" />
            <mxPoint x="240" y="-30" as="targetPoint" />
          </mxGeometry>
        </mxCell>
        <UserObject label="" link="&lt;br class=&quot;Apple-interchange-newline&quot;&gt;&lt;img style=&quot;caret-color: rgb(0, 0, 0); color: rgb(0, 0, 0); font-style: normal; font-variant-caps: normal; font-weight: 400; letter-spacing: normal; orphans: auto; text-align: start; text-indent: 0px; text-transform: none; white-space: normal; widows: auto; word-spacing: 0px; -webkit-text-stroke-width: 0px; text-decoration: none; -webkit-user-select: none; display: block; margin: auto;&quot; src=&quot;https://i.pinimg.com/736x/82/36/5b/82365b88091dbdfc72b7fd9865aec5fe.jpg&quot;&gt;" id="tcYbnixqoclAkC9XCUin-18">
          <mxCell style="endArrow=none;dashed=1;html=1;dashPattern=1 3;strokeWidth=2;rounded=0;entryX=-0.023;entryY=0.739;entryDx=0;entryDy=0;entryPerimeter=0;" edge="1" parent="1" target="7-4F1J_uM00n48sQhlS0-50">
            <mxGeometry x="1" y="1261" width="50" height="50" relative="1" as="geometry">
              <mxPoint x="290" y="20" as="sourcePoint" />
              <mxPoint x="240" y="-30" as="targetPoint" />
              <mxPoint x="484" y="93" as="offset" />
            </mxGeometry>
          </mxCell>
        </UserObject>
        <mxCell id="tcYbnixqoclAkC9XCUin-19" value="Поставщик" style="text;html=1;align=center;verticalAlign=middle;resizable=0;points=[];autosize=1;strokeColor=none;fillColor=none;" vertex="1" parent="1">
          <mxGeometry x="850" y="-270" width="90" height="30" as="geometry" />
        </mxCell>
        <mxCell id="tcYbnixqoclAkC9XCUin-20" value="Цены закупки" style="text;html=1;align=center;verticalAlign=middle;resizable=0;points=[];autosize=1;strokeColor=none;fillColor=none;" vertex="1" parent="1">
          <mxGeometry x="500" y="-282" width="100" height="30" as="geometry" />
        </mxCell>
        <mxCell id="tcYbnixqoclAkC9XCUin-21" value="Поставка" style="text;html=1;align=center;verticalAlign=middle;resizable=0;points=[];autosize=1;strokeColor=none;fillColor=none;" vertex="1" parent="1">
          <mxGeometry x="565" y="-60" width="80" height="30" as="geometry" />
        </mxCell>
        <mxCell id="tcYbnixqoclAkC9XCUin-22" value="Сотрудник" style="text;html=1;align=center;verticalAlign=middle;resizable=0;points=[];autosize=1;strokeColor=none;fillColor=none;" vertex="1" parent="1">
          <mxGeometry x="565" y="224" width="90" height="30" as="geometry" />
        </mxCell>
        <mxCell id="tcYbnixqoclAkC9XCUin-23" value="Занимаемая должность" style="text;html=1;align=center;verticalAlign=middle;resizable=0;points=[];autosize=1;strokeColor=none;fillColor=none;" vertex="1" parent="1">
          <mxGeometry x="840" y="188" width="160" height="30" as="geometry" />
        </mxCell>
        <mxCell id="tcYbnixqoclAkC9XCUin-24" value="Справочник должностей" style="text;html=1;align=center;verticalAlign=middle;resizable=0;points=[];autosize=1;strokeColor=none;fillColor=none;" vertex="1" parent="1">
          <mxGeometry x="1110" y="188" width="160" height="30" as="geometry" />
        </mxCell>
        <mxCell id="tcYbnixqoclAkC9XCUin-25" value="Заказ" style="text;html=1;align=center;verticalAlign=middle;resizable=0;points=[];autosize=1;strokeColor=none;fillColor=none;" vertex="1" parent="1">
          <mxGeometry x="320" y="120" width="60" height="30" as="geometry" />
        </mxCell>
        <mxCell id="tcYbnixqoclAkC9XCUin-26" value="Покупатель" style="text;html=1;align=center;verticalAlign=middle;resizable=0;points=[];autosize=1;strokeColor=none;fillColor=none;" vertex="1" parent="1">
          <mxGeometry x="305" y="439" width="90" height="30" as="geometry" />
        </mxCell>
        <mxCell id="tcYbnixqoclAkC9XCUin-28" value="" style="endArrow=none;dashed=1;html=1;dashPattern=1 3;strokeWidth=2;rounded=0;exitX=0.494;exitY=0.997;exitDx=0;exitDy=0;exitPerimeter=0;entryX=0.5;entryY=1;entryDx=0;entryDy=0;" edge="1" parent="1" source="N6S2Juw2z-ouQ5b6DnsQ-39" target="tcYbnixqoclAkC9XCUin-65">
          <mxGeometry width="50" height="50" relative="1" as="geometry">
            <mxPoint x="-181" y="120" as="sourcePoint" />
            <mxPoint x="-181" y="201" as="targetPoint" />
          </mxGeometry>
        </mxCell>
        <mxCell id="tcYbnixqoclAkC9XCUin-27" value="Состав заказа" style="text;html=1;align=center;verticalAlign=middle;resizable=0;points=[];autosize=1;strokeColor=none;fillColor=none;" vertex="1" parent="1">
          <mxGeometry x="-300" y="175" width="110" height="30" as="geometry" />
        </mxCell>
        <mxCell id="tcYbnixqoclAkC9XCUin-30" value="" style="endArrow=none;dashed=1;html=1;dashPattern=1 3;strokeWidth=2;rounded=0;exitX=0.458;exitY=1;exitDx=0;exitDy=0;exitPerimeter=0;" edge="1" parent="1" source="tcYbnixqoclAkC9XCUin-71">
          <mxGeometry width="50" height="50" relative="1" as="geometry">
            <mxPoint x="-183" y="-270" as="sourcePoint" />
            <mxPoint x="-183" y="-170" as="targetPoint" />
          </mxGeometry>
        </mxCell>
        <mxCell id="tcYbnixqoclAkC9XCUin-29" value="Товар" style="text;html=1;align=center;verticalAlign=middle;resizable=0;points=[];autosize=1;strokeColor=none;fillColor=none;" vertex="1" parent="1">
          <mxGeometry x="-260" y="-196" width="60" height="30" as="geometry" />
        </mxCell>
        <mxCell id="tcYbnixqoclAkC9XCUin-31" value="Цена товара" style="text;html=1;align=center;verticalAlign=middle;resizable=0;points=[];autosize=1;strokeColor=none;fillColor=none;" vertex="1" parent="1">
          <mxGeometry x="-560" y="-20" width="90" height="30" as="geometry" />
        </mxCell>
        <mxCell id="tcYbnixqoclAkC9XCUin-32" value="Единицы измерения&amp;nbsp;" style="text;html=1;align=center;verticalAlign=middle;resizable=0;points=[];autosize=1;strokeColor=none;fillColor=none;" vertex="1" parent="1">
          <mxGeometry x="-585" y="-196" width="140" height="30" as="geometry" />
        </mxCell>
        <mxCell id="tcYbnixqoclAkC9XCUin-33" value="Производитель" style="text;html=1;align=center;verticalAlign=middle;resizable=0;points=[];autosize=1;strokeColor=none;fillColor=none;" vertex="1" parent="1">
          <mxGeometry x="-235" y="-472" width="110" height="30" as="geometry" />
        </mxCell>
        <mxCell id="tcYbnixqoclAkC9XCUin-34" value="Состав поставки" style="text;html=1;align=center;verticalAlign=middle;resizable=0;points=[];autosize=1;strokeColor=none;fillColor=none;" vertex="1" parent="1">
          <mxGeometry x="160" y="-100" width="120" height="30" as="geometry" />
        </mxCell>
        <mxCell id="tcYbnixqoclAkC9XCUin-39" value="P" style="text;html=1;align=center;verticalAlign=middle;resizable=0;points=[];autosize=1;strokeColor=none;fillColor=none;" vertex="1" parent="1">
          <mxGeometry x="685" y="-171" width="30" height="30" as="geometry" />
        </mxCell>
        <mxCell id="tcYbnixqoclAkC9XCUin-41" value="" style="endArrow=none;dashed=1;html=1;dashPattern=1 3;strokeWidth=2;rounded=0;exitX=1;exitY=0;exitDx=0;exitDy=0;entryX=-0.003;entryY=0.028;entryDx=0;entryDy=0;entryPerimeter=0;" edge="1" parent="1" source="tcYbnixqoclAkC9XCUin-40" target="7-4F1J_uM00n48sQhlS0-78">
          <mxGeometry width="50" height="50" relative="1" as="geometry">
            <mxPoint x="605" y="-29" as="sourcePoint" />
            <mxPoint x="527" y="-170" as="targetPoint" />
          </mxGeometry>
        </mxCell>
        <mxCell id="tcYbnixqoclAkC9XCUin-42" value="P" style="text;html=1;align=center;verticalAlign=middle;resizable=0;points=[];autosize=1;strokeColor=none;fillColor=none;" vertex="1" parent="1">
          <mxGeometry x="490" y="-170" width="30" height="30" as="geometry" />
        </mxCell>
        <mxCell id="tcYbnixqoclAkC9XCUin-45" value="" style="endArrow=none;dashed=1;html=1;dashPattern=1 3;strokeWidth=2;rounded=0;exitX=0.5;exitY=0;exitDx=0;exitDy=0;entryX=0.49;entryY=0.968;entryDx=0;entryDy=0;entryPerimeter=0;" edge="1" parent="1" source="7-4F1J_uM00n48sQhlS0-26" target="tcYbnixqoclAkC9XCUin-44">
          <mxGeometry width="50" height="50" relative="1" as="geometry">
            <mxPoint x="610" y="210" as="sourcePoint" />
            <mxPoint x="608" y="162" as="targetPoint" />
          </mxGeometry>
        </mxCell>
        <mxCell id="tcYbnixqoclAkC9XCUin-44" value="" style="ellipse;whiteSpace=wrap;html=1;aspect=fixed;fillColor=#000000;" vertex="1" parent="1">
          <mxGeometry x="600" y="170" width="20" height="20" as="geometry" />
        </mxCell>
        <mxCell id="tcYbnixqoclAkC9XCUin-46" value="P" style="text;html=1;align=center;verticalAlign=middle;resizable=0;points=[];autosize=1;strokeColor=none;fillColor=none;" vertex="1" parent="1">
          <mxGeometry x="615" y="160" width="30" height="30" as="geometry" />
        </mxCell>
        <mxCell id="tcYbnixqoclAkC9XCUin-48" value="" style="endArrow=none;dashed=1;html=1;dashPattern=1 3;strokeWidth=2;rounded=0;exitX=0.987;exitY=0.205;exitDx=0;exitDy=0;exitPerimeter=0;entryX=0;entryY=0.5;entryDx=0;entryDy=0;" edge="1" parent="1" source="7-4F1J_uM00n48sQhlS0-28" target="tcYbnixqoclAkC9XCUin-47">
          <mxGeometry width="50" height="50" relative="1" as="geometry">
            <mxPoint x="688" y="319" as="sourcePoint" />
            <mxPoint x="840" y="318" as="targetPoint" />
          </mxGeometry>
        </mxCell>
        <mxCell id="tcYbnixqoclAkC9XCUin-47" value="" style="ellipse;whiteSpace=wrap;html=1;aspect=fixed;fillColor=#000000;" vertex="1" parent="1">
          <mxGeometry x="820" y="310" width="20" height="20" as="geometry" />
        </mxCell>
        <mxCell id="tcYbnixqoclAkC9XCUin-49" value="P" style="text;html=1;align=center;verticalAlign=middle;resizable=0;points=[];autosize=1;strokeColor=none;fillColor=none;" vertex="1" parent="1">
          <mxGeometry x="797" y="296" width="30" height="30" as="geometry" />
        </mxCell>
        <mxCell id="tcYbnixqoclAkC9XCUin-53" value="" style="endArrow=none;dashed=1;html=1;dashPattern=1 3;strokeWidth=2;rounded=0;exitX=0.996;exitY=1.061;exitDx=0;exitDy=0;exitPerimeter=0;entryX=-0.004;entryY=0.053;entryDx=0;entryDy=0;entryPerimeter=0;" edge="1" parent="1" source="7-4F1J_uM00n48sQhlS0-40" target="tcYbnixqoclAkC9XCUin-52">
          <mxGeometry width="50" height="50" relative="1" as="geometry">
            <mxPoint x="999" y="268" as="sourcePoint" />
            <mxPoint x="1109" y="268" as="targetPoint" />
          </mxGeometry>
        </mxCell>
        <mxCell id="tcYbnixqoclAkC9XCUin-52" value="" style="ellipse;whiteSpace=wrap;html=1;aspect=fixed;fillColor=#000000;" vertex="1" parent="1">
          <mxGeometry x="1000" y="246" width="20" height="20" as="geometry" />
        </mxCell>
        <mxCell id="tcYbnixqoclAkC9XCUin-54" value="P" style="text;html=1;align=center;verticalAlign=middle;resizable=0;points=[];autosize=1;strokeColor=none;fillColor=none;" vertex="1" parent="1">
          <mxGeometry x="1000" y="224" width="30" height="30" as="geometry" />
        </mxCell>
        <mxCell id="tcYbnixqoclAkC9XCUin-55" value="" style="ellipse;whiteSpace=wrap;html=1;aspect=fixed;fillColor=#000000;" vertex="1" parent="1">
          <mxGeometry x="430" y="301" width="20" height="20" as="geometry" />
        </mxCell>
        <mxCell id="tcYbnixqoclAkC9XCUin-56" value="P" style="text;html=1;align=center;verticalAlign=middle;resizable=0;points=[];autosize=1;strokeColor=none;fillColor=none;" vertex="1" parent="1">
          <mxGeometry x="430" y="273" width="30" height="30" as="geometry" />
        </mxCell>
        <mxCell id="tcYbnixqoclAkC9XCUin-58" value="" style="endArrow=none;dashed=1;html=1;dashPattern=1 3;strokeWidth=2;rounded=0;exitX=0.463;exitY=0;exitDx=0;exitDy=0;exitPerimeter=0;entryX=0.45;entryY=1.033;entryDx=0;entryDy=0;entryPerimeter=0;" edge="1" parent="1" source="7-4F1J_uM00n48sQhlS0-86" target="tcYbnixqoclAkC9XCUin-57">
          <mxGeometry width="50" height="50" relative="1" as="geometry">
            <mxPoint x="344" y="469" as="sourcePoint" />
            <mxPoint x="342" y="407" as="targetPoint" />
          </mxGeometry>
        </mxCell>
        <mxCell id="tcYbnixqoclAkC9XCUin-57" value="" style="ellipse;whiteSpace=wrap;html=1;aspect=fixed;fillColor=#000000;" vertex="1" parent="1">
          <mxGeometry x="340" y="406" width="20" height="20" as="geometry" />
        </mxCell>
        <mxCell id="tcYbnixqoclAkC9XCUin-59" value="P" style="text;html=1;align=center;verticalAlign=middle;resizable=0;points=[];autosize=1;strokeColor=none;fillColor=none;" vertex="1" parent="1">
          <mxGeometry x="350" y="406" width="30" height="30" as="geometry" />
        </mxCell>
        <mxCell id="tcYbnixqoclAkC9XCUin-61" value="" style="endArrow=none;dashed=1;html=1;dashPattern=1 3;strokeWidth=2;rounded=0;entryX=-0.013;entryY=0.989;entryDx=0;entryDy=0;entryPerimeter=0;exitX=1.003;exitY=0.787;exitDx=0;exitDy=0;exitPerimeter=0;" edge="1" parent="1" source="N6S2Juw2z-ouQ5b6DnsQ-47" target="tcYbnixqoclAkC9XCUin-60">
          <mxGeometry width="50" height="50" relative="1" as="geometry">
            <mxPoint x="-69" y="284" as="sourcePoint" />
            <mxPoint x="268" y="286" as="targetPoint" />
          </mxGeometry>
        </mxCell>
        <mxCell id="tcYbnixqoclAkC9XCUin-60" value="" style="ellipse;whiteSpace=wrap;html=1;aspect=fixed;fillColor=#000000;" vertex="1" parent="1">
          <mxGeometry x="-70" y="265" width="20" height="20" as="geometry" />
        </mxCell>
        <mxCell id="tcYbnixqoclAkC9XCUin-62" value="P" style="text;html=1;align=center;verticalAlign=middle;resizable=0;points=[];autosize=1;strokeColor=none;fillColor=none;" vertex="1" parent="1">
          <mxGeometry x="-70" y="236" width="30" height="30" as="geometry" />
        </mxCell>
        <mxCell id="tcYbnixqoclAkC9XCUin-64" value="P" style="text;html=1;align=center;verticalAlign=middle;resizable=0;points=[];autosize=1;strokeColor=none;fillColor=none;" vertex="1" parent="1">
          <mxGeometry x="-180" y="164" width="30" height="30" as="geometry" />
        </mxCell>
        <mxCell id="tcYbnixqoclAkC9XCUin-65" value="" style="ellipse;whiteSpace=wrap;html=1;aspect=fixed;fillColor=#000000;" vertex="1" parent="1">
          <mxGeometry x="-190" y="180" width="20" height="20" as="geometry" />
        </mxCell>
        <mxCell id="tcYbnixqoclAkC9XCUin-67" value="P" style="text;html=1;align=center;verticalAlign=middle;resizable=0;points=[];autosize=1;strokeColor=none;fillColor=none;" vertex="1" parent="1">
          <mxGeometry x="-395" y="90" width="30" height="30" as="geometry" />
        </mxCell>
        <mxCell id="tcYbnixqoclAkC9XCUin-69" value="" style="endArrow=none;dashed=1;html=1;dashPattern=1 3;strokeWidth=2;rounded=0;entryX=1.004;entryY=0.057;entryDx=0;entryDy=0;entryPerimeter=0;exitX=0.008;exitY=0.096;exitDx=0;exitDy=0;exitPerimeter=0;" edge="1" parent="1" source="N6S2Juw2z-ouQ5b6DnsQ-12" target="tcYbnixqoclAkC9XCUin-68">
          <mxGeometry width="50" height="50" relative="1" as="geometry">
            <mxPoint x="-278" y="-137" as="sourcePoint" />
            <mxPoint x="-389" y="-138" as="targetPoint" />
          </mxGeometry>
        </mxCell>
        <mxCell id="tcYbnixqoclAkC9XCUin-68" value="" style="ellipse;whiteSpace=wrap;html=1;aspect=fixed;fillColor=#000000;" vertex="1" parent="1">
          <mxGeometry x="-300" y="-140" width="20" height="20" as="geometry" />
        </mxCell>
        <mxCell id="tcYbnixqoclAkC9XCUin-70" value="P" style="text;html=1;align=center;verticalAlign=middle;resizable=0;points=[];autosize=1;strokeColor=none;fillColor=none;" vertex="1" parent="1">
          <mxGeometry x="-305" y="-120" width="30" height="30" as="geometry" />
        </mxCell>
        <mxCell id="tcYbnixqoclAkC9XCUin-73" value="" style="endArrow=none;dashed=1;html=1;dashPattern=1 3;strokeWidth=2;rounded=0;exitX=0.458;exitY=1;exitDx=0;exitDy=0;exitPerimeter=0;" edge="1" parent="1" source="N6S2Juw2z-ouQ5b6DnsQ-40" target="tcYbnixqoclAkC9XCUin-71">
          <mxGeometry width="50" height="50" relative="1" as="geometry">
            <mxPoint x="-183" y="-270" as="sourcePoint" />
            <mxPoint x="-183" y="-170" as="targetPoint" />
          </mxGeometry>
        </mxCell>
        <mxCell id="tcYbnixqoclAkC9XCUin-71" value="" style="ellipse;whiteSpace=wrap;html=1;aspect=fixed;fillColor=#000000;" vertex="1" parent="1">
          <mxGeometry x="-190" y="-191" width="20" height="20" as="geometry" />
        </mxCell>
        <mxCell id="tcYbnixqoclAkC9XCUin-74" value="P" style="text;html=1;align=center;verticalAlign=middle;resizable=0;points=[];autosize=1;strokeColor=none;fillColor=none;" vertex="1" parent="1">
          <mxGeometry x="-170" y="-201" width="30" height="30" as="geometry" />
        </mxCell>
        <mxCell id="tcYbnixqoclAkC9XCUin-76" value="" style="endArrow=none;dashed=1;html=1;dashPattern=1 3;strokeWidth=2;rounded=0;entryX=1.003;entryY=0.997;entryDx=0;entryDy=0;entryPerimeter=0;exitX=-0.002;exitY=0.967;exitDx=0;exitDy=0;exitPerimeter=0;" edge="1" parent="1" source="N6S2Juw2z-ouQ5b6DnsQ-37" target="tcYbnixqoclAkC9XCUin-75">
          <mxGeometry width="50" height="50" relative="1" as="geometry">
            <mxPoint x="150" y="19" as="sourcePoint" />
            <mxPoint x="-79" y="20" as="targetPoint" />
          </mxGeometry>
        </mxCell>
        <mxCell id="tcYbnixqoclAkC9XCUin-75" value="" style="ellipse;whiteSpace=wrap;html=1;aspect=fixed;fillColor=#000000;" vertex="1" parent="1">
          <mxGeometry x="130" width="20" height="20" as="geometry" />
        </mxCell>
        <mxCell id="tcYbnixqoclAkC9XCUin-77" value="" style="ellipse;whiteSpace=wrap;html=1;aspect=fixed;fillColor=#000000;" vertex="1" parent="1">
          <mxGeometry x="290" y="10" width="20" height="20" as="geometry" />
        </mxCell>
        <mxCell id="tcYbnixqoclAkC9XCUin-78" value="P" style="text;html=1;align=center;verticalAlign=middle;resizable=0;points=[];autosize=1;strokeColor=none;fillColor=none;" vertex="1" parent="1">
          <mxGeometry x="110" y="-20" width="30" height="30" as="geometry" />
        </mxCell>
        <mxCell id="tcYbnixqoclAkC9XCUin-80" value="P" style="text;html=1;align=center;verticalAlign=middle;resizable=0;points=[];autosize=1;strokeColor=none;fillColor=none;" vertex="1" parent="1">
          <mxGeometry x="290" y="-20" width="30" height="30" as="geometry" />
        </mxCell>
        <mxCell id="z25OLKXf6obtOIz2l0nd-1" value="" style="endArrow=none;dashed=1;html=1;dashPattern=1 3;strokeWidth=2;rounded=0;entryX=0;entryY=0.5;entryDx=0;entryDy=0;exitX=-0.002;exitY=0.247;exitDx=0;exitDy=0;exitPerimeter=0;" edge="1" parent="1" source="N6S2Juw2z-ouQ5b6DnsQ-39" target="tcYbnixqoclAkC9XCUin-66">
          <mxGeometry width="50" height="50" relative="1" as="geometry">
            <mxPoint x="-280" y="82" as="sourcePoint" />
            <mxPoint x="-389" y="82" as="targetPoint" />
          </mxGeometry>
        </mxCell>
        <mxCell id="tcYbnixqoclAkC9XCUin-66" value="" style="ellipse;whiteSpace=wrap;html=1;aspect=fixed;fillColor=#000000;" vertex="1" parent="1">
          <mxGeometry x="-390" y="73" width="20" height="20" as="geometry" />
        </mxCell>
        <mxCell id="z25OLKXf6obtOIz2l0nd-2" value="" style="endArrow=none;dashed=1;html=1;dashPattern=1 3;strokeWidth=2;rounded=0;exitX=1;exitY=0;exitDx=0;exitDy=0;entryX=1;entryY=0.5;entryDx=0;entryDy=0;" edge="1" parent="1" source="N6S2Juw2z-ouQ5b6DnsQ-11" target="tcYbnixqoclAkC9XCUin-40">
          <mxGeometry width="50" height="50" relative="1" as="geometry">
            <mxPoint x="-80" y="-170" as="sourcePoint" />
            <mxPoint x="530" y="-169" as="targetPoint" />
          </mxGeometry>
        </mxCell>
        <mxCell id="tcYbnixqoclAkC9XCUin-40" value="" style="ellipse;whiteSpace=wrap;html=1;aspect=fixed;fillColor=#000000;" vertex="1" parent="1">
          <mxGeometry x="510" y="-180" width="20" height="20" as="geometry" />
        </mxCell>
        <mxCell id="z25OLKXf6obtOIz2l0nd-3" value="" style="endArrow=none;dashed=1;html=1;dashPattern=1 3;strokeWidth=2;rounded=0;exitX=1.003;exitY=0.773;exitDx=0;exitDy=0;entryX=1;entryY=0.5;entryDx=0;entryDy=0;exitPerimeter=0;" edge="1" parent="1" source="7-4F1J_uM00n48sQhlS0-70" target="tcYbnixqoclAkC9XCUin-38">
          <mxGeometry width="50" height="50" relative="1" as="geometry">
            <mxPoint x="690" y="-178" as="sourcePoint" />
            <mxPoint x="809" y="-178" as="targetPoint" />
          </mxGeometry>
        </mxCell>
        <mxCell id="tcYbnixqoclAkC9XCUin-38" value="" style="ellipse;whiteSpace=wrap;html=1;aspect=fixed;fillColor=#000000;" vertex="1" parent="1">
          <mxGeometry x="690" y="-190" width="20" height="20" as="geometry" />
        </mxCell>
        <mxCell id="z25OLKXf6obtOIz2l0nd-5" value="" style="endArrow=none;dashed=1;html=1;dashPattern=1 3;strokeWidth=2;rounded=0;entryX=0.008;entryY=0.95;entryDx=0;entryDy=0;entryPerimeter=0;exitX=1;exitY=0;exitDx=0;exitDy=0;" edge="1" parent="1" source="z25OLKXf6obtOIz2l0nd-6" target="7-4F1J_uM00n48sQhlS0-83">
          <mxGeometry width="50" height="50" relative="1" as="geometry">
            <mxPoint x="630" y="-30" as="sourcePoint" />
            <mxPoint x="680" y="-80" as="targetPoint" />
          </mxGeometry>
        </mxCell>
        <mxCell id="z25OLKXf6obtOIz2l0nd-7" value="" style="endArrow=none;dashed=1;html=1;dashPattern=1 3;strokeWidth=2;rounded=0;entryX=0.008;entryY=0.95;entryDx=0;entryDy=0;entryPerimeter=0;exitX=1;exitY=0;exitDx=0;exitDy=0;" edge="1" parent="1" source="7-4F1J_uM00n48sQhlS0-49" target="z25OLKXf6obtOIz2l0nd-6">
          <mxGeometry width="50" height="50" relative="1" as="geometry">
            <mxPoint x="690" y="-30" as="sourcePoint" />
            <mxPoint x="811" y="-140" as="targetPoint" />
          </mxGeometry>
        </mxCell>
        <mxCell id="z25OLKXf6obtOIz2l0nd-6" value="" style="ellipse;whiteSpace=wrap;html=1;aspect=fixed;fillColor=#000000;" vertex="1" parent="1">
          <mxGeometry x="685" y="-40" width="20" height="20" as="geometry" />
        </mxCell>
        <mxCell id="z25OLKXf6obtOIz2l0nd-8" value="P" style="text;html=1;align=center;verticalAlign=middle;resizable=0;points=[];autosize=1;strokeColor=none;fillColor=none;" vertex="1" parent="1">
          <mxGeometry x="690" y="-30" width="30" height="30" as="geometry" />
        </mxCell>
      </root>
    </mxGraphModel>
  </diagram>
</mxfile>
